<?xml version="1.0" encoding="UTF-8" standalone="no"?>
<svg
   xmlns:dc="http://purl.org/dc/elements/1.1/"
   xmlns:cc="http://creativecommons.org/ns#"
   xmlns:rdf="http://www.w3.org/1999/02/22-rdf-syntax-ns#"
   xmlns:svg="http://www.w3.org/2000/svg"
   xmlns="http://www.w3.org/2000/svg"
   version="1.1"
   viewBox="0 0 16 16"
   width="16"
   height="16"
   id="svg8">
  <metadata
     id="metadata14">
    <rdf:RDF>
      <cc:Work
         rdf:about="">
        <dc:format>image/svg+xml</dc:format>
        <dc:type
           rdf:resource="http://purl.org/dc/dcmitype/StillImage" />
        <dc:title></dc:title>
      </cc:Work>
    </rdf:RDF>
  </metadata>
  <defs
     id="defs12" />
  <path
     d="M 8,0 A 8,8 0 0 0 0,8 8,8 0 0 0 8,16 8,8 0 0 0 16,8 8,8 0 0 0 8,0 Z m 0,2.47619 c 0.3900227,0.009 0.7218443,0.14172 0.9962207,0.39856 0.2524565,0.27022 0.38322,0.60016 0.3922903,0.98988 C 9.379441,4.25435 9.2486772,4.57543 8.9962207,4.82789 8.7218443,5.11134 8.3900227,5.25306 8,5.25306 7.6099773,5.25306 7.2894936,5.11134 7.037037,4.82789 6.7535903,4.57543 6.611489,4.25435 6.611489,3.86463 6.611489,3.47491 6.7535903,3.14497 7.037037,2.87475 7.2894936,2.61791 7.6099773,2.48503 8,2.47619 Z M 6.7641723,6.5421 h 2.4784581 v 6.98186 H 6.7641723 Z"
     id="path2"
     style="fill:#4682b4;fill-rule:evenodd;stroke-width:0.07558579" />
  <path
     d="m 98.68068,-128.19813 c -1.19322,-0.49904 -3.84643,-2.65928 -5.89601,-4.80053 -3.2071,-3.35052 -3.79165,-4.79359 -4.19379,-10.35301 -0.38101,-5.26746 -0.0335,-7.16175 1.8829,-10.26248 6.54509,-10.59018 22.27542,-11.4719 29.58925,-1.65854 6.10037,8.1852 3.73597,20.73265 -4.89892,25.99768 -3.64258,2.22102 -12.38255,2.79201 -16.48343,1.07688 z"
     style="fill:#ffffff;stroke-width:1.08474576"
     id="path4" />
  <path
     d="m 89.46034,-63.15325 v -45.55933 h 16.27119 16.27118 v 45.55933 45.55932 H 105.73153 89.46034 Z"
     style="fill:#ffffff;stroke-width:1.08474576"
     id="path6" />
</svg>
